<?xml version="1.0" encoding="UTF-8" standalone="no"?>
<svg
   xmlns:dc="http://purl.org/dc/elements/1.1/"
   xmlns:cc="http://creativecommons.org/ns#"
   xmlns:rdf="http://www.w3.org/1999/02/22-rdf-syntax-ns#"
   xmlns:svg="http://www.w3.org/2000/svg"
   xmlns="http://www.w3.org/2000/svg"
   xmlns:sodipodi="http://sodipodi.sourceforge.net/DTD/sodipodi-0.dtd"
   xmlns:inkscape="http://www.inkscape.org/namespaces/inkscape"
   sodipodi:docname="/home/nicolas/Downloads/like2.svg"
   inkscape:version="1.0 (4035a4fb49, 2020-05-01)"
   id="svg8"
   version="1.1"
   viewBox="0 0 2.5135417 2.3812499"
   height="2.3812499mm"
   width="2.5135417mm">
  <defs
     id="defs2">
    <linearGradient
       gradientUnits="userSpaceOnUse"
       id="a"
       x1="8"
       x2="8"
       y1="0"
       y2="16">
      <stop
         offset="0%"
         stop-color="#18AFFF"
         id="stop10" />
      <stop
         offset="100%"
         stop-color="#0062DF"
         id="stop12" />
    </linearGradient>
    <filter
       id="c"
       width="1.1880001"
       height="1.1880001"
       x="-0.093999997"
       y="-0.093999997"
       filterUnits="objectBoundingBox">
      <feGaussianBlur
         in="SourceAlpha"
         result="shadowBlurInner1"
         stdDeviation="1"
         id="feGaussianBlur15" />
      <feOffset
         dy="-1"
         in="shadowBlurInner1"
         result="shadowOffsetInner1"
         id="feOffset17" />
      <feComposite
         k4="0"
         k1="0"
         in="shadowOffsetInner1"
         in2="SourceAlpha"
         k2="-1"
         k3="1"
         operator="arithmetic"
         result="shadowInnerInner1"
         id="feComposite19" />
      <feColorMatrix
         in="shadowInnerInner1"
         values="0 0 0 0 0 0 0 0 0 0.299356041 0 0 0 0 0.681187726 0 0 0 0.3495684 0"
         id="feColorMatrix21" />
    </filter>
    <path
       id="b"
       d="M 8,0 A 8,8 0 0 0 0,8 8,8 0 1 0 16,8 8,8 0 0 0 8,0 Z" />
  </defs>
  <sodipodi:namedview
     inkscape:window-maximized="1"
     inkscape:window-y="20"
     inkscape:window-x="0"
     inkscape:window-height="724"
     inkscape:window-width="1366"
     showgrid="false"
     inkscape:document-rotation="0"
     inkscape:current-layer="g33"
     inkscape:document-units="mm"
     inkscape:cy="3.0695782"
     inkscape:cx="6.7595723"
     inkscape:zoom="31.678384"
     inkscape:pageshadow="2"
     inkscape:pageopacity="0.0"
     borderopacity="1.0"
     bordercolor="#666666"
     pagecolor="#ffffff"
     id="base" />
  <metadata
     id="metadata5">
    <rdf:RDF>
      <cc:Work
         rdf:about="">
        <dc:format>image/svg+xml</dc:format>
        <dc:type
           rdf:resource="http://purl.org/dc/dcmitype/StillImage" />
        <dc:title></dc:title>
      </cc:Work>
    </rdf:RDF>
  </metadata>
  <g
     transform="translate(-4.0348972,-1.5497025)"
     id="layer1"
     inkscape:groupmode="layer"
     inkscape:label="Layer 1">
    <g
       transform="matrix(0.26458333,0,0,0.26458333,-84.515476,85.573809)"
       fill="none"
       id="g33">
      <path
         style="fill:#000000;fill-opacity:1"
         id="path31-3"
         d="m 343.84058,-313.23343 c 0.176,0.123 0.338,0.245 0.338,0.674 0,0.43 -0.229,0.604 -0.474,0.725 a 0.73000001,0.73000001 0 0 1 0.089,0.546 c -0.077,0.344 -0.392,0.611 -0.672,0.69 0.121,0.194 0.159,0.385 0.015,0.62 -0.185,0.295 -0.346,0.407 -1.058,0.407 h -2.9 c -0.988,0 -1.5,-0.546 -1.5,-1 v -2.335 c 0,-1.23 1.467,-2.275 1.467,-3.13 l -0.106,-1.065 c -0.005,-0.065 0.008,-0.224 0.058,-0.27 0.08,-0.079 0.301,-0.2 0.635,-0.2 0.218,0 0.363,0.041 0.534,0.123 0.581,0.277 0.732,0.978 0.732,1.542 0,0.271 -0.414,1.083 -0.47,1.364 0,0 0.867,-0.192 1.879,-0.199 1.061,-0.006 1.749,0.19 1.749,0.842 0,0.261 -0.219,0.523 -0.316,0.666 z m -8.562,-0.338 h 0.8 a 0.60000001,0.60000001 0 0 1 0.6,0.6 v 3.8 a 0.60000001,0.60000001 0 0 1 -0.6,0.6 h -0.8 a 0.60000001,0.60000001 0 0 1 -0.6,-0.6 v -3.8 a 0.60000001,0.60000001 0 0 1 0.6,-0.6 z"
         fill="#ffffff" />
    </g>
  </g>
</svg>
