<svg xmlns="http://www.w3.org/2000/svg" xmlns:xlink="http://www.w3.org/1999/xlink" viewBox="0 0 160.142 157.211" height="594.183" width="605.261" xmlns:v="https://vecta.io/nano"><defs><filter height="1.006" y="-.003" width="1.006" x="-.003" id="A" color-interpolation-filters="sRGB"><feGaussianBlur stdDeviation=".198"/></filter><path id="B" d="M58.425 106.224l-3.653-2.272-3.69 2.212 1.032-4.176-3.244-2.825 4.3-.31 1.684-3.958 1.62 3.985 4.285.38-3.3 2.772z"/></defs><g transform="translate(-26.859 -45.142)" filter="url(#A)"><path d="M109.425 46.732c.734.674 1.107 2.777 1.107 2.777.223.584-.268.74-.38.74H97.46c-.11 0 .788-.2.893-.806.16-.93.2-2.035.882-2.704 1.23-1.226 3.225-1.582 4.962-1.596 1.82-.014 3.886.358 5.227 1.6z" fill="#950018"/><path d="M99.84 49.48c4.423-1.154 9.315-1.33 13.74-.186 22.193 5.74 46.2 15.768 59.255 34.078 11.062 15.515 13.6 37.164 10.104 55.716-.762 4.056-1.468 8.177-6.498 10.646l-139.523-.038c-3.515-1.623-5.614-3.262-6.528-6.04-6.732-20.437-.358-45.79 12.6-63.192C55.696 63.373 78.843 54.96 99.84 49.48z" fill="#d4040b"/><path d="M83.98 96.136l-3.653-2.272-3.69 2.212L77.67 91.9l-3.244-2.825 4.3-.31 1.684-3.958 1.62 3.985 4.285.38-3.3 2.772z" fill="#f2f2f2"/><a><path d="M37.155 149.148s44.723-13.81 67.846-14.003c24.184-.202 71.208 13.46 71.208 13.46.115 0 .207.503.207 1.128 0 0 5.298 46.4-11.737 50.707-19.065 4.832-39.653-9.183-59.893-9.9-21.673-.768-50.217 22.2-64.763 6.032-5.612-13.05-5.222-32.092-2.868-47.425z" fill="#950018"/></a><path d="M103.374 48.73c-15.213 7.888-36.34 19.554-47.568 35.954-12.693 18.54-18.44 64.84-18.44 64.84-20.913-4.145-6.848-58.442 9.6-79.438 12.4-15.826 62.182-24.35 56.407-21.356z" fill="#950018"/><g fill="#f2f2f2"><use xlink:href="#B"/><use xlink:href="#B" x="53.325" y="-16.874"/><use xlink:href="#B" x="80.969" y="-9.807"/></g><path d="M105.093 48.322c15.213 7.888 42.32 23.693 55.3 43.14 11.185 16.758 16.05 58.273 16.05 58.273 20.913-4.145 7.057-58.608-9.6-79.438-13.645-17.062-67.523-24.97-61.748-21.975z" fill="#950018"/><use xlink:href="#B" x="103.745" y="1.806" fill="#f2f2f2"/></g></svg>