<svg width="583" height="27" viewBox="0 0 583 27" fill="none" xmlns="http://www.w3.org/2000/svg">
<path d="M32.726 26H21.962V24.632C22.442 24.392 22.91 24.188 23.366 24.02C23.822 23.852 24.314 23.708 24.842 23.588V8.54L25.022 4.328H24.734L23.546 8.18L16.598 26H14.942L8.02995 8.324L6.73395 4.112H6.40995L6.44595 8.684V23.444C6.90195 23.54 7.40595 23.696 7.95795 23.912C8.50995 24.128 9.02595 24.368 9.50595 24.632V26H0.721953V24.632C1.10595 24.44 1.57395 24.212 2.12595 23.948C2.70195 23.684 3.24195 23.504 3.74595 23.408V3.212C3.26595 3.116 2.74995 2.984 2.19795 2.816C1.66995 2.648 1.20195 2.432 0.793953 2.168V0.799998H10.55L16.058 15.452L17.102 18.908H17.138L18.218 15.38L23.834 0.799998H32.762V2.168C32.354 2.408 31.91 2.624 31.43 2.816C30.974 2.984 30.506 3.116 30.026 3.212V23.624C30.53 23.72 31.01 23.864 31.466 24.056C31.946 24.248 32.366 24.44 32.726 24.632V26ZM42.3627 26H33.4707V24.632C33.8547 24.392 34.2627 24.188 34.6947 24.02C35.1507 23.828 35.5947 23.684 36.0267 23.588L45.3147 0.368H47.9787L57.0147 23.588C57.4947 23.684 57.9747 23.828 58.4547 24.02C58.9347 24.188 59.3547 24.392 59.7147 24.632V26H48.4467V24.632C48.9027 24.416 49.3947 24.212 49.9227 24.02C50.4507 23.828 50.9547 23.684 51.4347 23.588L49.3467 17.864H41.3547L39.2307 23.588C40.3347 23.732 41.3787 24.08 42.3627 24.632V26ZM42.2187 15.524H48.5907L46.2507 8.648L45.5667 5.552H45.4947L44.7027 8.72L42.2187 15.524ZM74.0613 0.799998H83.7093V2.168C83.3013 2.432 82.8333 2.66 82.3053 2.852C81.7773 3.02 81.2973 3.14 80.8653 3.212L74.0253 11.888C74.5773 12.656 75.2253 13.532 75.9693 14.516C76.7133 15.476 77.5053 16.484 78.3453 17.54C79.1853 18.572 80.0493 19.628 80.9373 20.708C81.8253 21.764 82.6893 22.772 83.5293 23.732L85.2573 24.776V26H78.9933L77.5533 24.992C76.9773 24.272 76.3653 23.48 75.7173 22.616C75.0933 21.728 74.4693 20.816 73.8453 19.88C73.2213 18.92 72.6093 17.96 72.0093 17C71.4093 16.04 70.8453 15.104 70.3173 14.192H68.7693V23.588C69.2973 23.684 69.7773 23.828 70.2093 24.02C70.6413 24.212 71.0133 24.416 71.3253 24.632V26H60.4173V24.632C60.8973 24.392 61.3893 24.188 61.8933 24.02C62.3973 23.828 62.8893 23.684 63.3693 23.588V3.212C62.8173 3.14 62.2773 3.008 61.7493 2.816C61.2453 2.624 60.8013 2.408 60.4173 2.168V0.799998H71.3253V2.168C71.0133 2.36 70.6293 2.552 70.1733 2.744C69.7413 2.936 69.2733 3.092 68.7693 3.212V12.356L70.8933 11.852L76.6893 3.212C76.2093 3.116 75.7293 2.972 75.2493 2.78C74.7933 2.564 74.3973 2.36 74.0613 2.168V0.799998ZM104.912 0.799998C104.864 1.88 104.78 2.996 104.66 4.148C104.54 5.3 104.384 6.38 104.192 7.388H102.716L101.06 3.14H94.3279V11.96H98.7199L100.304 9.188H101.456C101.576 10.364 101.636 11.672 101.636 13.112C101.636 14.552 101.576 15.896 101.456 17.144H100.304L98.7199 14.3H94.3279V23.66H101.348L103.256 19.088H104.732C104.828 19.544 104.924 20.06 105.02 20.636C105.116 21.212 105.188 21.812 105.236 22.436C105.308 23.036 105.356 23.648 105.38 24.272C105.428 24.896 105.452 25.472 105.452 26H85.9759V24.632C86.3839 24.416 86.8399 24.212 87.3439 24.02C87.8479 23.828 88.3759 23.684 88.9279 23.588V3.212C88.4479 3.116 87.9319 2.984 87.3799 2.816C86.8519 2.624 86.3839 2.408 85.9759 2.168V0.799998H104.912ZM122.338 23.012C122.602 23.276 122.974 23.528 123.454 23.768C123.934 23.984 124.57 24.092 125.362 24.092C126.682 24.092 127.774 23.756 128.638 23.084C129.526 22.388 129.97 21.428 129.97 20.204C129.97 19.316 129.682 18.572 129.106 17.972C128.554 17.372 127.846 16.82 126.982 16.316C126.118 15.812 125.194 15.32 124.21 14.84C123.226 14.336 122.302 13.748 121.438 13.076C120.574 12.404 119.854 11.612 119.278 10.7C118.726 9.764 118.45 8.612 118.45 7.244C118.45 6.068 118.666 5.048 119.098 4.184C119.53 3.32 120.118 2.612 120.862 2.06C121.63 1.484 122.53 1.064 123.562 0.799998C124.594 0.511999 125.71 0.368 126.91 0.368C128.374 0.368 129.73 0.476 130.978 0.692C132.25 0.883999 133.39 1.196 134.398 1.628C134.374 2.108 134.326 2.66 134.254 3.284C134.206 3.908 134.134 4.532 134.038 5.156C133.942 5.756 133.834 6.332 133.714 6.884C133.618 7.412 133.522 7.856 133.426 8.216H131.95L130.294 3.284C130.006 3.14 129.574 3.008 128.998 2.888C128.446 2.768 127.87 2.708 127.27 2.708C126.262 2.708 125.41 2.972 124.714 3.5C124.018 4.028 123.67 4.796 123.67 5.804C123.67 6.716 123.958 7.496 124.534 8.144C125.11 8.768 125.83 9.344 126.694 9.872C127.558 10.4 128.494 10.928 129.502 11.456C130.534 11.96 131.482 12.548 132.346 13.22C133.21 13.892 133.93 14.684 134.506 15.596C135.082 16.484 135.37 17.588 135.37 18.908C135.37 21.308 134.554 23.168 132.922 24.488C131.314 25.784 128.938 26.432 125.794 26.432C125.026 26.432 124.246 26.384 123.454 26.288C122.686 26.192 121.954 26.06 121.258 25.892C120.562 25.724 119.938 25.544 119.386 25.352C118.858 25.16 118.462 24.956 118.198 24.74C118.222 24.188 118.282 23.6 118.378 22.976C118.474 22.328 118.57 21.692 118.666 21.068C118.786 20.42 118.906 19.808 119.026 19.232C119.146 18.656 119.266 18.152 119.386 17.72H120.862L122.338 23.012ZM156.2 18.44H157.676C157.772 18.824 157.856 19.292 157.928 19.844C158.024 20.372 158.096 20.948 158.144 21.572C158.216 22.172 158.264 22.772 158.288 23.372C158.312 23.972 158.324 24.512 158.324 24.992C157.484 25.52 156.428 25.892 155.156 26.108C153.908 26.324 152.624 26.432 151.304 26.432C149.312 26.432 147.5 26.192 145.868 25.712C144.26 25.208 142.88 24.428 141.728 23.372C140.6 22.292 139.724 20.936 139.1 19.304C138.476 17.648 138.164 15.668 138.164 13.364C138.164 11.084 138.5 9.128 139.172 7.496C139.868 5.84 140.792 4.484 141.944 3.428C143.096 2.372 144.428 1.604 145.94 1.124C147.476 0.619999 149.084 0.368 150.764 0.368C152.348 0.368 153.776 0.487999 155.048 0.727999C156.344 0.943999 157.4 1.244 158.216 1.628C158.216 2.012 158.192 2.504 158.144 3.104C158.12 3.704 158.06 4.34 157.964 5.012C157.892 5.66 157.796 6.308 157.676 6.956C157.58 7.58 157.484 8.108 157.388 8.54H155.876L153.896 3.104C153.68 2.984 153.332 2.888 152.852 2.816C152.372 2.744 151.88 2.708 151.376 2.708C150.392 2.708 149.468 2.912 148.604 3.32C147.74 3.704 146.972 4.328 146.3 5.192C145.628 6.056 145.1 7.172 144.716 8.54C144.332 9.884 144.14 11.504 144.14 13.4C144.14 16.832 144.824 19.472 146.192 21.32C147.56 23.168 149.42 24.092 151.772 24.092C152.444 24.092 153.008 24.044 153.464 23.948C153.944 23.828 154.268 23.672 154.436 23.48L156.2 18.44ZM169.316 23.588C169.868 23.708 170.36 23.864 170.792 24.056C171.224 24.248 171.644 24.44 172.052 24.632V26H160.964V24.632C161.492 24.344 161.996 24.128 162.476 23.984C162.956 23.816 163.436 23.684 163.916 23.588V3.212C162.716 2.948 161.732 2.6 160.964 2.168V0.799998H164.78C165.26 0.799998 165.8 0.787998 166.4 0.763999C167.024 0.739999 167.672 0.715999 168.344 0.692C169.016 0.643999 169.7 0.607999 170.396 0.583999C171.092 0.536 171.764 0.512 172.412 0.512C173.732 0.512 174.944 0.667999 176.048 0.979998C177.176 1.268 178.136 1.712 178.928 2.312C179.744 2.912 180.368 3.668 180.8 4.58C181.256 5.468 181.484 6.512 181.484 7.712C181.484 9.44 181.064 10.856 180.224 11.96C179.384 13.064 178.232 13.892 176.768 14.444C177.728 15.956 178.748 17.504 179.828 19.088C180.908 20.648 182.048 22.16 183.248 23.624L184.976 24.776V26H178.964L177.416 24.812C176.312 23.492 175.328 21.968 174.464 20.24C173.624 18.488 172.88 16.772 172.232 15.092H169.316V23.588ZM171.116 2.852C170.372 2.852 169.772 2.924 169.316 3.068V13.112H171.44C172.664 13.112 173.708 12.68 174.572 11.816C175.436 10.928 175.868 9.62 175.868 7.892C175.868 7.004 175.748 6.248 175.508 5.624C175.268 4.976 174.932 4.448 174.5 4.04C174.068 3.632 173.564 3.332 172.988 3.14C172.412 2.948 171.788 2.852 171.116 2.852ZM185.343 13.4C185.343 11.528 185.607 9.8 186.135 8.216C186.663 6.608 187.443 5.228 188.475 4.076C189.507 2.9 190.779 1.988 192.291 1.34C193.803 0.691999 195.543 0.368 197.511 0.368C199.479 0.368 201.219 0.691999 202.731 1.34C204.243 1.988 205.503 2.9 206.511 4.076C207.543 5.228 208.323 6.608 208.851 8.216C209.379 9.8 209.643 11.528 209.643 13.4C209.643 15.272 209.379 17.012 208.851 18.62C208.323 20.204 207.543 21.584 206.511 22.76C205.503 23.912 204.243 24.812 202.731 25.46C201.219 26.108 199.479 26.432 197.511 26.432C195.543 26.432 193.803 26.108 192.291 25.46C190.779 24.812 189.507 23.912 188.475 22.76C187.443 21.584 186.663 20.204 186.135 18.62C185.607 17.012 185.343 15.272 185.343 13.4ZM191.463 13.4C191.463 14.936 191.583 16.364 191.823 17.684C192.063 18.98 192.435 20.108 192.939 21.068C193.467 22.004 194.127 22.748 194.919 23.3C195.735 23.828 196.707 24.092 197.835 24.092C198.867 24.092 199.743 23.828 200.463 23.3C201.183 22.748 201.771 22.004 202.227 21.068C202.683 20.108 203.007 18.98 203.199 17.684C203.415 16.364 203.523 14.936 203.523 13.4C203.523 11.864 203.403 10.448 203.163 9.152C202.947 7.832 202.587 6.704 202.083 5.768C201.603 4.808 200.955 4.064 200.139 3.536C199.347 2.984 198.375 2.708 197.223 2.708C196.119 2.708 195.195 2.984 194.451 3.536C193.707 4.064 193.107 4.808 192.651 5.768C192.219 6.704 191.907 7.832 191.715 9.152C191.547 10.448 191.463 11.864 191.463 13.4ZM211.8 0.799998H223.608V2.168C223.104 2.432 222.54 2.66 221.916 2.852C221.316 3.02 220.728 3.14 220.152 3.212V23.66H227.1L229.512 17.216H230.988C231.084 17.768 231.168 18.416 231.24 19.16C231.336 19.904 231.408 20.684 231.456 21.5C231.504 22.316 231.54 23.12 231.564 23.912C231.588 24.704 231.588 25.4 231.564 26H211.8V24.632C212.352 24.344 212.868 24.116 213.348 23.948C213.852 23.78 214.32 23.66 214.752 23.588V3.212C213.576 3.02 212.592 2.672 211.8 2.168V0.799998ZM232.788 0.799998H244.596V2.168C244.092 2.432 243.528 2.66 242.904 2.852C242.304 3.02 241.716 3.14 241.14 3.212V23.66H248.088L250.5 17.216H251.976C252.072 17.768 252.156 18.416 252.228 19.16C252.324 19.904 252.396 20.684 252.444 21.5C252.492 22.316 252.528 23.12 252.552 23.912C252.576 24.704 252.576 25.4 252.552 26H232.788V24.632C233.34 24.344 233.856 24.116 234.336 23.948C234.84 23.78 235.308 23.66 235.74 23.588V3.212C234.564 3.02 233.58 2.672 232.788 2.168V0.799998ZM253.777 26V24.632C254.233 24.368 254.713 24.14 255.217 23.948C255.745 23.756 256.249 23.636 256.729 23.588V3.212C256.249 3.116 255.745 2.984 255.217 2.816C254.689 2.624 254.209 2.408 253.777 2.168V0.799998H259.573C260.485 0.799998 261.349 0.763999 262.165 0.692C262.981 0.619999 263.917 0.583999 264.973 0.583999C266.125 0.583999 267.241 0.667999 268.321 0.835998C269.401 1.004 270.361 1.304 271.201 1.736C272.041 2.168 272.713 2.78 273.217 3.572C273.721 4.34 273.973 5.336 273.973 6.56C273.973 7.328 273.829 8.048 273.541 8.72C273.277 9.368 272.893 9.944 272.389 10.448C271.909 10.952 271.333 11.372 270.661 11.708C270.013 12.044 269.305 12.284 268.537 12.428V12.572C269.305 12.668 270.073 12.848 270.841 13.112C271.633 13.376 272.341 13.76 272.965 14.264C273.589 14.768 274.093 15.404 274.477 16.172C274.885 16.916 275.089 17.804 275.089 18.836C275.089 20.132 274.801 21.248 274.225 22.184C273.649 23.12 272.869 23.888 271.885 24.488C270.925 25.088 269.821 25.532 268.573 25.82C267.325 26.084 266.029 26.216 264.685 26.216C264.181 26.216 263.629 26.204 263.029 26.18C262.429 26.156 261.829 26.132 261.229 26.108C260.629 26.084 260.041 26.06 259.465 26.036C258.913 26.012 258.445 26 258.061 26H253.777ZM264.649 23.876C266.161 23.876 267.349 23.432 268.213 22.544C269.077 21.632 269.509 20.432 269.509 18.944C269.509 18.032 269.365 17.288 269.077 16.712C268.789 16.112 268.393 15.644 267.889 15.308C267.385 14.948 266.785 14.708 266.089 14.588C265.393 14.444 264.637 14.372 263.821 14.372H261.913V23.624C262.249 23.696 262.597 23.756 262.957 23.804C263.341 23.852 263.905 23.876 264.649 23.876ZM263.065 12.032C263.473 12.032 263.881 12.02 264.289 11.996C264.697 11.948 265.081 11.9 265.441 11.852C266.377 11.468 267.133 10.88 267.709 10.088C268.285 9.272 268.573 8.348 268.573 7.316C268.573 5.804 268.177 4.7 267.385 4.004C266.593 3.284 265.573 2.924 264.325 2.924C263.797 2.924 263.341 2.936 262.957 2.96C262.573 2.984 262.225 3.02 261.913 3.068V12.032H263.065ZM285.328 26H276.436V24.632C276.82 24.392 277.228 24.188 277.66 24.02C278.116 23.828 278.56 23.684 278.992 23.588L288.28 0.368H290.944L299.98 23.588C300.46 23.684 300.94 23.828 301.42 24.02C301.9 24.188 302.32 24.392 302.68 24.632V26H291.412V24.632C291.868 24.416 292.36 24.212 292.888 24.02C293.416 23.828 293.92 23.684 294.4 23.588L292.312 17.864H284.32L282.196 23.588C283.3 23.732 284.344 24.08 285.328 24.632V26ZM285.184 15.524H291.556L289.216 8.648L288.532 5.552H288.46L287.668 8.72L285.184 15.524ZM311.734 23.588C312.286 23.708 312.778 23.864 313.21 24.056C313.642 24.248 314.062 24.44 314.47 24.632V26H303.382V24.632C303.91 24.344 304.414 24.128 304.894 23.984C305.374 23.816 305.854 23.684 306.334 23.588V3.212C305.134 2.948 304.15 2.6 303.382 2.168V0.799998H307.198C307.678 0.799998 308.218 0.787998 308.818 0.763999C309.442 0.739999 310.09 0.715999 310.762 0.692C311.434 0.643999 312.118 0.607999 312.814 0.583999C313.51 0.536 314.182 0.512 314.83 0.512C316.15 0.512 317.362 0.667999 318.466 0.979998C319.594 1.268 320.554 1.712 321.346 2.312C322.162 2.912 322.786 3.668 323.218 4.58C323.674 5.468 323.902 6.512 323.902 7.712C323.902 9.44 323.482 10.856 322.642 11.96C321.802 13.064 320.65 13.892 319.186 14.444C320.146 15.956 321.166 17.504 322.246 19.088C323.326 20.648 324.466 22.16 325.666 23.624L327.394 24.776V26H321.382L319.834 24.812C318.73 23.492 317.746 21.968 316.882 20.24C316.042 18.488 315.298 16.772 314.65 15.092H311.734V23.588ZM313.534 2.852C312.79 2.852 312.19 2.924 311.734 3.068V13.112H313.858C315.082 13.112 316.126 12.68 316.99 11.816C317.854 10.928 318.286 9.62 318.286 7.892C318.286 7.004 318.166 6.248 317.926 5.624C317.686 4.976 317.35 4.448 316.918 4.04C316.486 3.632 315.982 3.332 315.406 3.14C314.83 2.948 314.206 2.852 313.534 2.852ZM360.363 24.416C359.883 24.656 359.295 24.896 358.599 25.136C357.903 25.376 357.171 25.592 356.403 25.784C355.635 25.976 354.867 26.132 354.099 26.252C353.331 26.372 352.647 26.432 352.047 26.432C349.983 26.432 348.135 26.168 346.503 25.64C344.895 25.088 343.515 24.272 342.363 23.192C341.235 22.088 340.371 20.72 339.771 19.088C339.171 17.456 338.871 15.56 338.871 13.4C338.871 11.048 339.231 9.056 339.951 7.424C340.695 5.768 341.667 4.424 342.867 3.392C344.091 2.336 345.471 1.568 347.007 1.088C348.543 0.607999 350.115 0.368 351.723 0.368C353.307 0.368 354.795 0.476 356.187 0.692C357.579 0.908 358.683 1.22 359.499 1.628C359.499 1.988 359.475 2.456 359.427 3.032C359.403 3.584 359.355 4.184 359.283 4.832C359.211 5.48 359.115 6.128 358.995 6.776C358.899 7.424 358.779 8.012 358.635 8.54H357.159L355.143 3.068C354.879 2.948 354.483 2.864 353.955 2.816C353.427 2.744 352.899 2.708 352.371 2.708C351.387 2.708 350.439 2.9 349.527 3.284C348.615 3.668 347.811 4.292 347.115 5.156C346.419 5.996 345.867 7.1 345.459 8.468C345.051 9.812 344.847 11.456 344.847 13.4C344.847 14.984 345.027 16.436 345.387 17.756C345.771 19.052 346.299 20.168 346.971 21.104C347.643 22.04 348.447 22.772 349.383 23.3C350.319 23.828 351.351 24.092 352.479 24.092C352.839 24.092 353.211 24.068 353.595 24.02C353.979 23.948 354.339 23.864 354.675 23.768C355.011 23.672 355.299 23.564 355.539 23.444C355.803 23.324 355.983 23.216 356.079 23.12V16.352C355.455 16.304 354.867 16.184 354.315 15.992C353.763 15.8 353.247 15.572 352.767 15.308V13.94H362.595V15.308C362.379 15.524 362.091 15.728 361.731 15.92C361.371 16.088 360.915 16.232 360.363 16.352V24.416ZM372.062 23.588C372.614 23.708 373.106 23.864 373.538 24.056C373.97 24.248 374.39 24.44 374.798 24.632V26H363.71V24.632C364.238 24.344 364.742 24.128 365.222 23.984C365.702 23.816 366.182 23.684 366.662 23.588V3.212C365.462 2.948 364.478 2.6 363.71 2.168V0.799998H367.526C368.006 0.799998 368.546 0.787998 369.146 0.763999C369.77 0.739999 370.418 0.715999 371.09 0.692C371.762 0.643999 372.446 0.607999 373.142 0.583999C373.838 0.536 374.51 0.512 375.158 0.512C376.478 0.512 377.69 0.667999 378.794 0.979998C379.922 1.268 380.882 1.712 381.674 2.312C382.49 2.912 383.114 3.668 383.546 4.58C384.002 5.468 384.23 6.512 384.23 7.712C384.23 9.44 383.81 10.856 382.97 11.96C382.13 13.064 380.978 13.892 379.514 14.444C380.474 15.956 381.494 17.504 382.574 19.088C383.654 20.648 384.794 22.16 385.994 23.624L387.722 24.776V26H381.71L380.162 24.812C379.058 23.492 378.074 21.968 377.21 20.24C376.37 18.488 375.626 16.772 374.978 15.092H372.062V23.588ZM373.862 2.852C373.118 2.852 372.518 2.924 372.062 3.068V13.112H374.186C375.41 13.112 376.454 12.68 377.318 11.816C378.182 10.928 378.614 9.62 378.614 7.892C378.614 7.004 378.494 6.248 378.254 5.624C378.014 4.976 377.678 4.448 377.246 4.04C376.814 3.632 376.31 3.332 375.734 3.14C375.158 2.948 374.534 2.852 373.862 2.852ZM407.748 0.799998C407.7 1.88 407.616 2.996 407.496 4.148C407.376 5.3 407.22 6.38 407.028 7.388H405.552L403.896 3.14H397.164V11.96H401.556L403.14 9.188H404.292C404.412 10.364 404.472 11.672 404.472 13.112C404.472 14.552 404.412 15.896 404.292 17.144H403.14L401.556 14.3H397.164V23.66H404.184L406.092 19.088H407.568C407.664 19.544 407.76 20.06 407.856 20.636C407.952 21.212 408.024 21.812 408.072 22.436C408.144 23.036 408.192 23.648 408.216 24.272C408.264 24.896 408.288 25.472 408.288 26H388.812V24.632C389.22 24.416 389.676 24.212 390.18 24.02C390.684 23.828 391.212 23.684 391.764 23.588V3.212C391.284 3.116 390.768 2.984 390.216 2.816C389.688 2.624 389.22 2.408 388.812 2.168V0.799998H407.748ZM418.71 26H409.818V24.632C410.202 24.392 410.61 24.188 411.042 24.02C411.498 23.828 411.942 23.684 412.374 23.588L421.662 0.368H424.326L433.362 23.588C433.842 23.684 434.322 23.828 434.802 24.02C435.282 24.188 435.702 24.392 436.062 24.632V26H424.794V24.632C425.25 24.416 425.742 24.212 426.27 24.02C426.798 23.828 427.302 23.684 427.782 23.588L425.694 17.864H417.702L415.578 23.588C416.682 23.732 417.726 24.08 418.71 24.632V26ZM418.566 15.524H424.938L422.598 8.648L421.914 5.552H421.842L421.05 8.72L418.566 15.524ZM450.991 26H438.607V24.632C439.087 24.44 439.627 24.248 440.227 24.056C440.851 23.84 441.475 23.684 442.099 23.588V3.14H437.923L435.619 9.296H434.143C434.047 8.816 433.951 8.204 433.855 7.46C433.759 6.716 433.675 5.948 433.603 5.156C433.531 4.364 433.471 3.584 433.423 2.816C433.375 2.024 433.351 1.352 433.351 0.799998H456.283C456.283 1.376 456.259 2.048 456.211 2.816C456.163 3.584 456.103 4.364 456.031 5.156C455.959 5.948 455.875 6.716 455.779 7.46C455.683 8.18 455.587 8.792 455.491 9.296H453.979L451.675 3.14H447.499V23.588C448.123 23.708 448.735 23.852 449.335 24.02C449.959 24.188 450.511 24.392 450.991 24.632V26ZM475.066 26H466.174V24.632C466.558 24.392 466.966 24.188 467.398 24.02C467.854 23.828 468.298 23.684 468.73 23.588L478.018 0.368H480.682L489.718 23.588C490.198 23.684 490.678 23.828 491.158 24.02C491.638 24.188 492.058 24.392 492.418 24.632V26H481.15V24.632C481.606 24.416 482.098 24.212 482.626 24.02C483.154 23.828 483.658 23.684 484.138 23.588L482.05 17.864H474.058L471.934 23.588C473.038 23.732 474.082 24.08 475.066 24.632V26ZM474.922 15.524H481.294L478.954 8.648L478.27 5.552H478.198L477.406 8.72L474.922 15.524ZM513.468 24.416C512.988 24.656 512.4 24.896 511.704 25.136C511.008 25.376 510.276 25.592 509.508 25.784C508.74 25.976 507.972 26.132 507.204 26.252C506.436 26.372 505.752 26.432 505.152 26.432C503.088 26.432 501.24 26.168 499.608 25.64C498 25.088 496.62 24.272 495.468 23.192C494.34 22.088 493.476 20.72 492.876 19.088C492.276 17.456 491.976 15.56 491.976 13.4C491.976 11.048 492.336 9.056 493.056 7.424C493.8 5.768 494.772 4.424 495.972 3.392C497.196 2.336 498.576 1.568 500.112 1.088C501.648 0.607999 503.22 0.368 504.828 0.368C506.412 0.368 507.9 0.476 509.292 0.692C510.684 0.908 511.788 1.22 512.604 1.628C512.604 1.988 512.58 2.456 512.532 3.032C512.508 3.584 512.46 4.184 512.388 4.832C512.316 5.48 512.22 6.128 512.1 6.776C512.004 7.424 511.884 8.012 511.74 8.54H510.264L508.248 3.068C507.984 2.948 507.588 2.864 507.06 2.816C506.532 2.744 506.004 2.708 505.476 2.708C504.492 2.708 503.544 2.9 502.632 3.284C501.72 3.668 500.916 4.292 500.22 5.156C499.524 5.996 498.972 7.1 498.564 8.468C498.156 9.812 497.952 11.456 497.952 13.4C497.952 14.984 498.132 16.436 498.492 17.756C498.876 19.052 499.404 20.168 500.076 21.104C500.748 22.04 501.552 22.772 502.488 23.3C503.424 23.828 504.456 24.092 505.584 24.092C505.944 24.092 506.316 24.068 506.7 24.02C507.084 23.948 507.444 23.864 507.78 23.768C508.116 23.672 508.404 23.564 508.644 23.444C508.908 23.324 509.088 23.216 509.184 23.12V16.352C508.56 16.304 507.972 16.184 507.42 15.992C506.868 15.8 506.352 15.572 505.872 15.308V13.94H515.7V15.308C515.484 15.524 515.196 15.728 514.836 15.92C514.476 16.088 514.02 16.232 513.468 16.352V24.416ZM524.988 26H516.096V24.632C516.48 24.392 516.888 24.188 517.32 24.02C517.776 23.828 518.22 23.684 518.652 23.588L527.94 0.368H530.604L539.64 23.588C540.12 23.684 540.6 23.828 541.08 24.02C541.56 24.188 541.98 24.392 542.34 24.632V26H531.072V24.632C531.528 24.416 532.02 24.212 532.548 24.02C533.076 23.828 533.58 23.684 534.06 23.588L531.972 17.864H523.98L521.856 23.588C522.96 23.732 524.004 24.08 524.988 24.632V26ZM524.844 15.524H531.216L528.876 8.648L528.192 5.552H528.12L527.328 8.72L524.844 15.524ZM554.634 26H543.402V24.632C544.362 24.104 545.334 23.756 546.318 23.588V3.212C545.838 3.14 545.334 3.008 544.806 2.816C544.278 2.624 543.81 2.408 543.402 2.168V0.799998H554.634V2.168C554.202 2.432 553.722 2.66 553.194 2.852C552.69 3.02 552.198 3.14 551.718 3.212V23.588C552.198 23.684 552.69 23.816 553.194 23.984C553.722 24.152 554.202 24.368 554.634 24.632V26ZM573.357 0.799998H582.285V2.168C581.829 2.528 581.325 2.852 580.773 3.14C580.221 3.404 579.705 3.608 579.225 3.752V26.432H576.165L563.457 8.072L562.017 5.3H561.909L562.233 8.18V23.192C562.713 23.312 563.241 23.516 563.817 23.804C564.417 24.068 564.921 24.344 565.329 24.632V26H556.437V24.632C556.869 24.344 557.337 24.08 557.841 23.84C558.369 23.576 558.909 23.36 559.461 23.192V3.536C558.981 3.344 558.501 3.128 558.021 2.888C557.541 2.648 557.109 2.396 556.725 2.132V0.799998H564.501L574.833 15.776L576.489 18.872H576.633L576.453 15.776V3.752C575.877 3.56 575.313 3.332 574.761 3.068C574.233 2.78 573.765 2.48 573.357 2.168V0.799998Z" fill="#0A0B0D"/>
</svg>
